<svg xmlns="http://www.w3.org/2000/svg" xmlns:xlink="http://www.w3.org/1999/xlink" viewBox="0 0 128 174.03"><defs><linearGradient id="a" x1="17.07" y1="-230.63" x2="9.74" y2="-203.85" gradientTransform="matrix(1, 0, 0, -1, 45.32, -78.37)" gradientUnits="userSpaceOnUse"><stop offset="0" stop-color="#d3d7cf"/><stop offset="1" stop-color="#d3d7cf" stop-opacity="0"/></linearGradient><linearGradient id="b" x1="55.96" y1="-58.39" x2="73.36" y2="-91.93" gradientTransform="matrix(2.63, 0, 0, -2.63, -111.08, -97.76)" gradientUnits="userSpaceOnUse"><stop offset="0" stop-color="#e9b96e"/><stop offset="1" stop-color="#8f5902"/></linearGradient><linearGradient id="c" x1="48.4" y1="-74.4" x2="48.4" y2="-86.82" gradientTransform="matrix(2.63, 0, 0, -2.63, -103.79, -78.34)" gradientUnits="userSpaceOnUse"><stop offset="0" stop-color="#e9b96e"/><stop offset="1" stop-color="#e9b96e" stop-opacity="0"/></linearGradient><linearGradient id="d" x1="-718.58" y1="-495.6" x2="-714.56" y2="-508.52" gradientTransform="matrix(2.62, 0, 0, -2.62, 1943.61, -1179.96)" gradientUnits="userSpaceOnUse"><stop offset="0" stop-color="#f4f2f3"/><stop offset="1" stop-color="#888a85"/></linearGradient><linearGradient id="e" x1="86.94" y1="-87.33" x2="74.79" y2="-54.8" gradientTransform="matrix(2.63, 0, 0, -2.63, -111.08, -97.76)" gradientUnits="userSpaceOnUse"><stop offset="0" stop-color="#8f5902"/><stop offset="1" stop-color="#8f5902" stop-opacity="0.02"/></linearGradient><linearGradient id="f" x1="120.57" y1="-83.14" x2="132.95" y2="-84.07" gradientTransform="matrix(1, 0, 0, -1, -88.68, -58.62)" gradientUnits="userSpaceOnUse"><stop offset="0" stop-color="#9f6a15"/><stop offset="1" stop-color="#9f6a15" stop-opacity="0"/></linearGradient><linearGradient id="g" x1="131.18" y1="19.89" x2="96.14" y2="11.28" gradientTransform="matrix(1, 0, 0, -1, -33.52, 36.8)" xlink:href="#f"/><linearGradient id="h" x1="161.04" y1="-73.12" x2="139.54" y2="-68.12" gradientTransform="matrix(1, 0, 0, -1, -88.68, -59.37)" gradientUnits="userSpaceOnUse"><stop offset="0" stop-color="#945f08"/><stop offset="1" stop-color="#e0b064"/></linearGradient><radialGradient id="i" cx="258.61" cy="-174.41" r="16.5" gradientTransform="matrix(0.71, 0, 0, -0.88, -129.67, -17.04)" gradientUnits="userSpaceOnUse"><stop offset="0" stop-color="#ffffc0"/><stop offset="1" stop-color="#ffffc0" stop-opacity="0"/></radialGradient><linearGradient id="j" x1="419.95" y1="-180.81" x2="418.73" y2="-184.14" gradientTransform="matrix(1, 0, 0.46, -0.89, -272.43, -113.2)" gradientUnits="userSpaceOnUse"><stop offset="0" stop-color="#babdb6"/><stop offset="1" stop-color="#888a85"/></linearGradient><linearGradient id="k" x1="439.66" y1="-194.92" x2="438.45" y2="-198.89" gradientTransform="matrix(1, 0, 0.49, -0.87, -288.61, -121.86)" xlink:href="#j"/><linearGradient id="l" x1="304.95" y1="-127.62" x2="298.39" y2="-133.98" gradientTransform="matrix(1, 0, 0.29, -0.96, -188.04, -79.14)" xlink:href="#j"/><linearGradient id="m" x1="389.86" y1="-88.87" x2="390.21" y2="-95.56" gradientTransform="matrix(0.99, 0.13, 0.45, -0.89, -273.6, -82.93)" xlink:href="#j"/><linearGradient id="n" x1="402.96" y1="-180.51" x2="401.92" y2="-184.97" xlink:href="#j"/><linearGradient id="o" x1="380.86" y1="-154.3" x2="377.96" y2="-160.86" gradientTransform="matrix(1, 0, 0.37, -0.93, -280.86, -96.94)" xlink:href="#j"/><linearGradient id="p" x1="-162" y1="-245.35" x2="-163.22" y2="-248.68" gradientTransform="matrix(0.14, -0.73, -0.59, -0.46, -39.03, -176.46)" xlink:href="#j"/><linearGradient id="q" x1="-139.62" y1="-260.72" x2="-140.83" y2="-264.69" gradientTransform="matrix(0.14, -0.73, -0.57, -0.48, -46.65, -165.47)" xlink:href="#j"/><linearGradient id="r" x1="-289.04" y1="-187.64" x2="-295.6" y2="-194" gradientTransform="matrix(0.14, -0.73, -0.66, -0.35, -3.76, -234.84)" xlink:href="#j"/><linearGradient id="s" x1="-160.74" y1="-232.64" x2="-160.39" y2="-239.33" gradientTransform="matrix(0.24, -0.71, -0.59, -0.46, -17.83, -171.82)" xlink:href="#j"/><linearGradient id="t" x1="-178.98" y1="-245.05" x2="-180.02" y2="-249.51" gradientTransform="matrix(0.14, -0.73, -0.59, -0.46, -38.5, -175.93)" xlink:href="#j"/><radialGradient id="u" cx="164.42" cy="-65.73" r="16.5" gradientTransform="matrix(1, 0, 0, -1.24, -78.85, 6.1)" xlink:href="#i"/></defs><path d="M72.86,116.33s-58.42,1.25-45.59,7.45c10.06,4.86,26,7,15.7,9.53,0,0-100.21,34.68,10.25,40.09,86.72,5.61,99.71-27.27,22.65-40.35.94-5.31,29.9-17.2-3-16.72Z" transform="translate(0 0)" style="fill:url(#a)"/><path d="M72.86,1.36S14.44,5,27.27,23.26c10.06,14.29,26,20.5,15.7,28,0,0-100.21,102,10.25,117.88C139.94,185.66,152.93,89,75.87,50.53c.94-15.61,29.9-50.58-3-49.17Z" transform="translate(0 0)" style="stroke:#c17d11;stroke-width:2.631999969482422px;fill:url(#b)"/><path d="M38.81,70.91c-15.17.32-53,66.52-11.68,85.79C13.5,129.44,31,82.65,38.81,70.91Z" transform="translate(0 0)" style="fill:url(#c)"/><path d="M60.18,153.59v-9.06c-6.49-.09-13.2-1.71-17.11-3.95l2.68-6a35.31,35.31,0,0,0,16.11,3.86c7.93,0,13.3-3.68,13.3-8.79,0-4.93-4.36-8-12.64-10.68-11.4-3.58-18.45-7.7-18.45-15.51C44.07,96,50.67,90.36,61,89V80h6.93v8.7a35.46,35.46,0,0,1,14.54,3.14l-2.79,5.92a32.09,32.09,0,0,0-14.1-3c-8.61,0-11.85,4.13-11.85,7.71,0,4.66,4.14,7,13.87,10.23C79.08,116.36,84.9,121,84.9,129c0,7.08-6.16,13.72-17.68,15.25v9.32h-7Z" transform="translate(0 0)" style="fill:url(#d)"/><path d="M81.32,54.38c-.25.6-.47,1.16-.65,1.73,34.7,30.63,42.35,70.8,30.76,98.54,23.56-24.94,15-73.2-30.11-100.27Z" transform="translate(0 0)" style="fill:url(#e)"/><path d="M36.82,9.25c-1.51.27-6.13,2.94-7.36,3.79-1.79,1.44-3.93,3.35-3.57,5.89.48,2.78,2.53,4.89,4.26,7C34,30.18,38,34.3,42.13,38.2c1.11,1,2.3,2.11,3.86,2.22,1,1.29,2.71.92,4.13.88,1.14-.21,3.17.41,3.68.36-7.63-10.45-25.07-24.09-17-32.41Z" transform="translate(0 0)" style="fill:url(#f)"/><path d="M81.72,3Q72.58,22.5,63.44,42c1.69.23,3.06-1.21,4.92-.8,1.6-.09,3.34.18,4.82-.57,1.09-1.4,3.15-.48,4.37-1.67,2.09-2,3-4.93,4.21-7.52,2.24-5.56,4.74-11.09,6-17,.54-2.93.53-6.28-1.28-8.79A8.59,8.59,0,0,0,81.72,3Z" transform="translate(0 0)" style="fill:url(#g)"/><path d="M78.2,1.69c-3.78-.06-7.61-.68-11.34.19-12.52,1.33-22.83,2-32.1,11-1.58,10.35,19.41,7.67,25.07,6,5.32-2.35,16.25-5.12,15-12.88C68.38,1.48,54.4,7.2,47.59,9" transform="translate(0 0)" style="stroke:#c17d11;stroke-width:2.619999885559082px;fill:url(#h)"/><path d="M62.77,145.54c-.33.33-7.05-5.62-7.49-5.47s-2,9-2.44,9,0-9-.39-9.27-8.28,4.06-8.52,3.67,7.06-5.62,7-6.08S42.6,133.4,42.75,133s8.8,2,9.12,1.69-2.12-9-1.68-9.13,3.91,8.14,4.37,8.19,5.69-7.26,6.09-7-3.92,8.13-3.67,8.52,9.21-.07,9.27.39-8.8,2-9,2.44,5.81,7.17,5.48,7.49Z" transform="translate(0 0)" style="fill:url(#i)"/><path d="M77.68,42.34a1.18,1.18,0,0,0-.56.66l-.25.81-2.5-.34a1.37,1.37,0,0,0-1.31.71l-4.31,8.41a.61.61,0,0,0,.5.94l3,.4a1.41,1.41,0,0,0,1.34-.72L74.68,51l-.28.87a.65.65,0,0,0,.66.88h2.28a1.3,1.3,0,0,0,1.16-.88l.31-1c-.91-.48-1.84-1-2.78-1.44a28,28,0,0,1,1.65-7.12Zm-31.56.94c.93,2.38.26,4.58-3,6.94,0,0-1.38,1.42-3.43,3.68h2.84a1.47,1.47,0,0,0,1.22-.75l-.63,1.22a.56.56,0,0,0,.53.88h5a1.73,1.73,0,0,0,1.41-.88l4.56-8.9a.55.55,0,0,0-.53-.88h-5a1.72,1.72,0,0,0-1.4.88L43.9,52.93l3.53-8.81c.2-.48-.07-.84-.59-.84ZM66,44.87a1.75,1.75,0,0,0-1.44.85L60,54.62a.55.55,0,0,0,.53.88h5a1.72,1.72,0,0,0,1.4-.88l4.57-8.9c.24-.48,0-.85-.53-.85Zm-9.19.56a1.87,1.87,0,0,0-1.47.88l-5,8.91c-.27.47,0,.84.5.84h5.6a1.83,1.83,0,0,0,1.46-.84l5-8.91c.27-.48.05-.88-.5-.88Z" transform="translate(0 0)" style="fill:#2e3436;stroke:#2e3436;stroke-linejoin:round;stroke-width:1.5378999710083008px;isolation:isolate;opacity:0.3007499873638153"/><path d="M65.35,42.41h5a.55.55,0,0,1,.53.87l-4.57,8.91a1.71,1.71,0,0,1-1.41.86h-5a.54.54,0,0,1-.53-.86l4.56-8.91A1.75,1.75,0,0,1,65.35,42.41Z" transform="translate(0 0)" style="stroke:#888a85;stroke-linejoin:round;stroke-width:1.6301000118255615px;fill:url(#j)"/><path d="M56.18,43h5.57c.55,0,.77.39.51.87l-5,8.91a1.86,1.86,0,0,1-1.47.86H50.23c-.54,0-.77-.38-.5-.86l5-8.91A1.87,1.87,0,0,1,56.18,43Z" transform="translate(0 0)" style="stroke:#888a85;stroke-linejoin:round;stroke-width:1.645900011062622px;fill:url(#k)"/><path d="M77.64,39.69h2.28a.63.63,0,0,1,.64.87l-2.69,8.91a1.29,1.29,0,0,1-1.17.86H74.42a.63.63,0,0,1-.64-.86l2.69-8.91A1.3,1.3,0,0,1,77.64,39.69Z" transform="translate(0 0)" style="stroke:#888a85;stroke-linejoin:round;stroke-width:1.5719000101089478px;fill:url(#l)"/><path d="M73.74,41l3,.38a.61.61,0,0,1,.49.94l-4.29,8.42a1.38,1.38,0,0,1-1.33.7l-3-.38a.6.6,0,0,1-.49-.93l4.3-8.43A1.38,1.38,0,0,1,73.74,41Z" transform="translate(0 0)" style="stroke:#888a85;stroke-linejoin:round;stroke-width:1.5846999883651733px;fill:url(#m)"/><path d="M48.49,42.15h5A.55.55,0,0,1,54,43l-4.56,8.91a1.74,1.74,0,0,1-1.42.86H43a.54.54,0,0,1-.53-.86L47.08,43A1.72,1.72,0,0,1,48.49,42.15Z" transform="translate(0 0)" style="stroke:#888a85;stroke-linejoin:round;stroke-width:1.6301000118255615px;fill:url(#n)"/><path d="M42.6,40.82h3.59a.59.59,0,0,1,.59.87l-3.6,8.91a1.47,1.47,0,0,1-1.28.86H38.31a.58.58,0,0,1-.59-.86l3.6-8.91A1.49,1.49,0,0,1,42.6,40.82Z" transform="translate(0 0)" style="stroke:#888a85;stroke-linejoin:round;stroke-width:1.597000002861023px;fill:url(#o)"/><path d="M79.41,55.61a1,1,0,0,0,.53,1l6.35,3.13a.45.45,0,0,0,.69-.37l.26-2.22a1.08,1.08,0,0,0-.53-1L84,54.82l.54.14a.46.46,0,0,0,.63-.48l-5.8,1.13Zm2.2,2.51c-.12.07-.17.21-.17.42l0,3.72a1.31,1.31,0,0,0,.67,1l6.71,3.31c.36.18.65,0,.65-.39l-.06-3.73a1.28,1.28,0,0,0-.66-1l-6.72-3.34a.46.46,0,0,0-.47,0Zm1.63,6.52a.46.46,0,0,0-.17.42l.06,4.17a1.4,1.4,0,0,0,.68,1.1L90.52,74a.41.41,0,0,0,.65-.4l0-4.17a1.43,1.43,0,0,0-.68-1.1l-6.71-3.63a.53.53,0,0,0-.49,0Zm-.81,6.43c-.23,0-.38.16-.38.46l.06,3.76a1.31,1.31,0,0,0,.67,1l6.7,3.31a.42.42,0,0,0,.65-.42l-.06-3.73a1.28,1.28,0,0,0-.66-1L82.7,71.14a.72.72,0,0,0-.27-.07Z" transform="translate(0 0)" style="fill:#2e3436;stroke:#2e3436;stroke-linejoin:round;stroke-width:1.5378999710083008px;isolation:isolate;opacity:0.36465999484062195"/><path d="M78.07,55l.71-3.66a.41.41,0,0,1,.71-.26l5.89,4.63a1.28,1.28,0,0,1,.43,1.16l-.71,3.66a.41.41,0,0,1-.71.26L78.5,56.16A1.28,1.28,0,0,1,78.07,55Z" transform="translate(0 0)" style="stroke:#888a85;stroke-linejoin:round;stroke-width:2.1791999340057373px;fill:url(#p)"/><path d="M78.23,62.16l.8-4.09a.4.4,0,0,1,.71-.25l5.83,4.94A1.38,1.38,0,0,1,86,64l-.8,4.09c-.08.4-.39.51-.71.25l-5.82-4.93A1.41,1.41,0,0,1,78.23,62.16Z" transform="translate(0 0)" style="stroke:#888a85;stroke-linejoin:round;stroke-width:2.2002999782562256px;fill:url(#q)"/><path d="M76,44.26l.33-1.68a.47.47,0,0,1,.73-.34l6.15,3.26a1,1,0,0,1,.47,1l-.33,1.68a.48.48,0,0,1-.73.35l-6.15-3.26A1,1,0,0,1,76,44.26Z" transform="translate(0 0)" style="stroke:#888a85;stroke-linejoin:round;stroke-width:2.1013998985290527px;fill:url(#r)"/><path d="M77.4,48.06l.71-2.12a.46.46,0,0,1,.76-.23l5.57,4.37a1,1,0,0,1,.32,1.07l-.71,2.13a.44.44,0,0,1-.75.22l-5.57-4.36A1.06,1.06,0,0,1,77.4,48.06Z" transform="translate(0 0)" style="stroke:#888a85;stroke-linejoin:round;stroke-width:2.118499994277954px;fill:url(#s)"/><path d="M76,67.86l.71-3.65a.41.41,0,0,1,.71-.27l5.89,4.63a1.31,1.31,0,0,1,.43,1.16L83,73.39a.41.41,0,0,1-.71.26L76.42,69A1.27,1.27,0,0,1,76,67.86Z" transform="translate(0 0)" style="stroke:#888a85;stroke-linejoin:round;stroke-width:2.1791999340057373px;fill:url(#t)"/><path d="M97.19,99.39c-.46.46-9.91-7.91-10.52-7.69s-2.78,12.64-3.43,12.57,0-12.67-.55-13-11.62,5.71-12,5.16,9.91-7.9,9.83-8.55-11.7-5.52-11.49-6.14,12.35,2.83,12.82,2.37-3-12.6-2.37-12.82S85,82.69,85.66,82.77s8-10.19,8.55-9.84-5.51,11.41-5.16,12,13-.1,13,.55S89.71,88.25,89.5,88.87s8.15,10.06,7.69,10.52Z" transform="translate(0 0)" style="fill:url(#u)"/></svg>